<svg width="26" height="26" viewBox="0 0 26 26" fill="none" xmlns="http://www.w3.org/2000/svg">
<path d="M9.32941 10.5529C10.6809 10.5529 11.7765 9.45734 11.7765 8.10587C11.7765 6.7544 10.6809 5.65881 9.32941 5.65881C7.97794 5.65881 6.88235 6.7544 6.88235 8.10587C6.88235 9.45734 7.97794 10.5529 9.32941 10.5529Z" stroke="#0E0E2C" stroke-opacity="0.6" stroke-width="1.5" stroke-linecap="round" stroke-linejoin="round"/>
<path d="M14.2235 0.764706H9.32941C3.21176 0.764706 0.764706 3.21176 0.764706 9.32941V16.6706C0.764706 22.7882 3.21176 25.2353 9.32941 25.2353H16.6706C22.7882 25.2353 25.2353 22.7882 25.2353 16.6706V10.5529" stroke="#0E0E2C" stroke-opacity="0.6" stroke-width="1.5" stroke-linecap="round" stroke-linejoin="round"/>
<path d="M17.5882 4.4353H24.3176" stroke="#0E0E2C" stroke-opacity="0.6" stroke-width="1.5" stroke-linecap="round"/>
<path d="M20.9529 7.79999V1.07058" stroke="#0E0E2C" stroke-opacity="0.6" stroke-width="1.5" stroke-linecap="round"/>
<path d="M1.58438 21.5036L7.61637 17.4537C8.58296 16.8052 9.97779 16.8787 10.8465 17.625L11.2503 17.9798C12.2046 18.7996 13.7463 18.7996 14.7006 17.9798L19.7905 13.6118C20.7448 12.7921 22.2865 12.7921 23.2408 13.6118L25.2352 15.3248" stroke="#0E0E2C" stroke-opacity="0.6" stroke-width="1.5" stroke-linecap="round" stroke-linejoin="round"/>
</svg>
